<?xml version="1.0" encoding="utf-8"?>
<!-- Generator: Adobe Illustrator 27.8.1, SVG Export Plug-In . SVG Version: 6.00 Build 0)  -->
<svg version="1.1" id="Layer_1" xmlns="http://www.w3.org/2000/svg" xmlns:xlink="http://www.w3.org/1999/xlink" x="0px" y="0px"
	 viewBox="0 0 1000 1000" style="enable-background:new 0 0 1000 1000;" xml:space="preserve">
<style type="text/css">
	.st0{fill:url(#SVGID_1_);}
	.st1{fill:url(#SVGID_00000011003588748364802710000008622143639207854754_);}
	.st2{fill:url(#SVGID_00000144324301617149697860000002786124973708220590_);}
	.st3{fill:url(#SVGID_00000079473863701592710400000015299619908012540570_);}
	.st4{fill:url(#SVGID_00000144295390768881701060000014630268778524804501_);}
	.st5{fill:url(#SVGID_00000165211203349185099330000007789283843864310952_);}
	.st6{fill:url(#SVGID_00000091698940576995216210000008687476453264126854_);}
</style>
<g id="uuid-f99fabf3-b831-4d0b-ae38-68ef484bf01d">
	
		<linearGradient id="SVGID_1_" gradientUnits="userSpaceOnUse" x1="506.3886" y1="802.79" x2="493.0586" y2="76.12" gradientTransform="matrix(1 0 0 -1 0 1002)">
		<stop  offset="0" style="stop-color:#CEA634"/>
		<stop  offset="2.000000e-02" style="stop-color:#C29932"/>
		<stop  offset="6.000000e-02" style="stop-color:#AB822E"/>
		<stop  offset="0.1" style="stop-color:#9D732A"/>
		<stop  offset="0.13" style="stop-color:#986E2A"/>
		<stop  offset="0.17" style="stop-color:#9C722D"/>
		<stop  offset="0.23" style="stop-color:#AB8338"/>
		<stop  offset="0.29" style="stop-color:#C19E4B"/>
		<stop  offset="0.36" style="stop-color:#E0C366"/>
		<stop  offset="0.39" style="stop-color:#F3DA77"/>
		<stop  offset="0.56" style="stop-color:#F9F4AE"/>
		<stop  offset="0.7" style="stop-color:#E0AC35"/>
		<stop  offset="0.73" style="stop-color:#C89330"/>
		<stop  offset="0.78" style="stop-color:#A4722A"/>
		<stop  offset="0.84" style="stop-color:#875422"/>
		<stop  offset="0.9" style="stop-color:#714119"/>
		<stop  offset="0.95" style="stop-color:#653417"/>
		<stop  offset="1" style="stop-color:#603116"/>
	</linearGradient>
	<path class="st0" d="M749,518.2L503,162.8v445.4h-5V162.8L251.9,518.2l-1.4,2l1.4,2l134.2,187.9l36.3,127.1h156l36.3-127.1
		L749,522.2l1.4-2L749,518.2z M507,175.6l237.2,342.6H641.7c-9.6-50.3-19.1-100.7-28.7-151c2.3,50.7,4.6,101.4,7,152.2l-97.7,88.8
		H507L507,175.6L507,175.6z M638,520.1l-53.8,188.2L525,791.2V611.1l99-90l-7-119.5L638,520.1L638,520.1z M503,612.2h18v184.6
		l-20.5,28.7L480,796.8V612.2H503z M476,791.2l-59.2-82.8l-53.8-188.2L384,401.5L377,521l99,90V791.2z M494,175.6v432.6h-15.2
		L381,519.4c2.3-50.7,4.6-101.4,7-152.2c-9.6,50.3-19.1,100.7-28.7,151H256.8L494,175.6L494,175.6z M611.2,708.3l-35.7,124.9h-150
		l-35.6-124.5c-44.3-62.2-88.7-124.3-133-186.5h102.6l53.6,187.5c21,29.4,42,58.9,62.9,88.3l4,5.6l18,25.2l2.5,3.5l2.5-3.5l18-25.2
		l4-5.6l62.8-88l53.7-187.9h102.6L611.2,708.3L611.2,708.3z"/>
</g>
<g id="uuid-3b6317bc-55cb-4e0c-aef7-506ac024f3ba">
	
		<linearGradient id="SVGID_00000000204340354211946180000006753985623301299384_" gradientUnits="userSpaceOnUse" x1="-37.9479" y1="552.1342" x2="559.3821" y2="249.4642" gradientTransform="matrix(1 0 0 -1 0 1002)">
		<stop  offset="0" style="stop-color:#CEA634"/>
		<stop  offset="2.000000e-02" style="stop-color:#C29932"/>
		<stop  offset="6.000000e-02" style="stop-color:#AB822E"/>
		<stop  offset="0.1" style="stop-color:#9D732A"/>
		<stop  offset="0.13" style="stop-color:#986E2A"/>
		<stop  offset="0.17" style="stop-color:#9C722D"/>
		<stop  offset="0.23" style="stop-color:#AB8338"/>
		<stop  offset="0.29" style="stop-color:#C19E4B"/>
		<stop  offset="0.36" style="stop-color:#E0C366"/>
		<stop  offset="0.39" style="stop-color:#F3DA77"/>
		<stop  offset="0.56" style="stop-color:#F9F4AE"/>
		<stop  offset="0.7" style="stop-color:#E0AC35"/>
		<stop  offset="0.73" style="stop-color:#C89330"/>
		<stop  offset="0.78" style="stop-color:#A4722A"/>
		<stop  offset="0.84" style="stop-color:#875422"/>
		<stop  offset="0.9" style="stop-color:#714119"/>
		<stop  offset="0.95" style="stop-color:#653417"/>
		<stop  offset="1" style="stop-color:#603116"/>
	</linearGradient>
	<path style="fill:url(#SVGID_00000000204340354211946180000006753985623301299384_);" d="M478,610.2v225h45v-225H478z"/>
	
		<linearGradient id="SVGID_00000099627725592113531860000018298762622485805223_" gradientUnits="userSpaceOnUse" x1="364.0584" y1="514.1599" x2="394.2784" y2="130.1599" gradientTransform="matrix(1 0 0 -1 0 1002)">
		<stop  offset="0" style="stop-color:#CEA634"/>
		<stop  offset="2.000000e-02" style="stop-color:#C29932"/>
		<stop  offset="6.000000e-02" style="stop-color:#AB822E"/>
		<stop  offset="0.1" style="stop-color:#9D732A"/>
		<stop  offset="0.13" style="stop-color:#986E2A"/>
		<stop  offset="0.17" style="stop-color:#9C722D"/>
		<stop  offset="0.23" style="stop-color:#AB8338"/>
		<stop  offset="0.29" style="stop-color:#C19E4B"/>
		<stop  offset="0.36" style="stop-color:#E0C366"/>
		<stop  offset="0.39" style="stop-color:#F3DA77"/>
		<stop  offset="0.56" style="stop-color:#F9F4AE"/>
		<stop  offset="0.7" style="stop-color:#E0AC35"/>
		<stop  offset="0.73" style="stop-color:#C89330"/>
		<stop  offset="0.78" style="stop-color:#A4722A"/>
		<stop  offset="0.84" style="stop-color:#875422"/>
		<stop  offset="0.9" style="stop-color:#714119"/>
		<stop  offset="0.95" style="stop-color:#653417"/>
		<stop  offset="1" style="stop-color:#603116"/>
	</linearGradient>
	<path style="fill:url(#SVGID_00000099627725592113531860000018298762622485805223_);" d="M253,520.2h108l54,189l90,126h-81l-36-126
		L253,520.2L253,520.2z"/>
	
		<linearGradient id="SVGID_00000149349563716199957850000013056628131279769774_" gradientUnits="userSpaceOnUse" x1="88.7095" y1="802.109" x2="686.0494" y2="499.439" gradientTransform="matrix(1 0 0 -1 0 1002)">
		<stop  offset="0" style="stop-color:#CEA634"/>
		<stop  offset="2.000000e-02" style="stop-color:#C29932"/>
		<stop  offset="6.000000e-02" style="stop-color:#AB822E"/>
		<stop  offset="0.1" style="stop-color:#9D732A"/>
		<stop  offset="0.13" style="stop-color:#986E2A"/>
		<stop  offset="0.17" style="stop-color:#9C722D"/>
		<stop  offset="0.23" style="stop-color:#AB8338"/>
		<stop  offset="0.29" style="stop-color:#C19E4B"/>
		<stop  offset="0.36" style="stop-color:#E0C366"/>
		<stop  offset="0.39" style="stop-color:#F3DA77"/>
		<stop  offset="0.56" style="stop-color:#F9F4AE"/>
		<stop  offset="0.7" style="stop-color:#E0AC35"/>
		<stop  offset="0.73" style="stop-color:#C89330"/>
		<stop  offset="0.78" style="stop-color:#A4722A"/>
		<stop  offset="0.84" style="stop-color:#875422"/>
		<stop  offset="0.9" style="stop-color:#714119"/>
		<stop  offset="0.95" style="stop-color:#653417"/>
		<stop  offset="1" style="stop-color:#603116"/>
	</linearGradient>
	<path style="fill:url(#SVGID_00000149349563716199957850000013056628131279769774_);" d="M253,520.2l243-351v441h-18l-99-90l9-153
		l-27,153H253L253,520.2z"/>
	
		<linearGradient id="SVGID_00000009571866518514867780000005265868790215138719_" gradientUnits="userSpaceOnUse" x1="759.9292" y1="607.0204" x2="495.0392" y2="103.9104" gradientTransform="matrix(1 0 0 -1 0 1002)">
		<stop  offset="0" style="stop-color:#CEA634"/>
		<stop  offset="2.000000e-02" style="stop-color:#C29932"/>
		<stop  offset="6.000000e-02" style="stop-color:#AB822E"/>
		<stop  offset="0.1" style="stop-color:#9D732A"/>
		<stop  offset="0.13" style="stop-color:#986E2A"/>
		<stop  offset="0.17" style="stop-color:#9C722D"/>
		<stop  offset="0.23" style="stop-color:#AB8338"/>
		<stop  offset="0.29" style="stop-color:#C19E4B"/>
		<stop  offset="0.36" style="stop-color:#E0C366"/>
		<stop  offset="0.39" style="stop-color:#F3DA77"/>
		<stop  offset="0.56" style="stop-color:#F9F4AE"/>
		<stop  offset="0.7" style="stop-color:#E0AC35"/>
		<stop  offset="0.73" style="stop-color:#C89330"/>
		<stop  offset="0.78" style="stop-color:#A4722A"/>
		<stop  offset="0.84" style="stop-color:#875422"/>
		<stop  offset="0.9" style="stop-color:#714119"/>
		<stop  offset="0.95" style="stop-color:#653417"/>
		<stop  offset="1" style="stop-color:#603116"/>
	</linearGradient>
	<path style="fill:url(#SVGID_00000009571866518514867780000005265868790215138719_);" d="M748,520.2H640l-54,189l-90,126h81l36-126
		L748,520.2z"/>
	
		<linearGradient id="SVGID_00000058563874814762119320000001623591732046672267_" gradientUnits="userSpaceOnUse" x1="1038.5892" y1="770.8527" x2="323.9291" y2="554.8527" gradientTransform="matrix(1 0 0 -1 0 1002)">
		<stop  offset="0" style="stop-color:#CEA634"/>
		<stop  offset="2.000000e-02" style="stop-color:#C29932"/>
		<stop  offset="6.000000e-02" style="stop-color:#AB822E"/>
		<stop  offset="0.1" style="stop-color:#9D732A"/>
		<stop  offset="0.13" style="stop-color:#986E2A"/>
		<stop  offset="0.17" style="stop-color:#9C722D"/>
		<stop  offset="0.23" style="stop-color:#AB8338"/>
		<stop  offset="0.29" style="stop-color:#C19E4B"/>
		<stop  offset="0.36" style="stop-color:#E0C366"/>
		<stop  offset="0.39" style="stop-color:#F3DA77"/>
		<stop  offset="0.56" style="stop-color:#F9F4AE"/>
		<stop  offset="0.7" style="stop-color:#E0AC35"/>
		<stop  offset="0.73" style="stop-color:#C89330"/>
		<stop  offset="0.78" style="stop-color:#A4722A"/>
		<stop  offset="0.84" style="stop-color:#875422"/>
		<stop  offset="0.9" style="stop-color:#714119"/>
		<stop  offset="0.95" style="stop-color:#653417"/>
		<stop  offset="1" style="stop-color:#603116"/>
	</linearGradient>
	<path style="fill:url(#SVGID_00000058563874814762119320000001623591732046672267_);" d="M748,520.2l-243-351v441h18l99-90l-9-153
		l27,153H748z"/>
</g>
<g id="uuid-a8f5fa1e-aa25-487a-9d45-6eee4836f94c">
	
		<linearGradient id="SVGID_00000170980622194075510020000018416484018990966664_" gradientUnits="userSpaceOnUse" x1="506.3886" y1="802.79" x2="493.0586" y2="76.12" gradientTransform="matrix(1 0 0 -1 0 1002)">
		<stop  offset="0" style="stop-color:#CEA634"/>
		<stop  offset="2.000000e-02" style="stop-color:#C29932"/>
		<stop  offset="6.000000e-02" style="stop-color:#AB822E"/>
		<stop  offset="0.1" style="stop-color:#9D732A"/>
		<stop  offset="0.13" style="stop-color:#986E2A"/>
		<stop  offset="0.17" style="stop-color:#9C722D"/>
		<stop  offset="0.23" style="stop-color:#AB8338"/>
		<stop  offset="0.29" style="stop-color:#C19E4B"/>
		<stop  offset="0.36" style="stop-color:#E0C366"/>
		<stop  offset="0.39" style="stop-color:#F3DA77"/>
		<stop  offset="0.56" style="stop-color:#F9F4AE"/>
		<stop  offset="0.7" style="stop-color:#E0AC35"/>
		<stop  offset="0.73" style="stop-color:#C89330"/>
		<stop  offset="0.78" style="stop-color:#A4722A"/>
		<stop  offset="0.84" style="stop-color:#875422"/>
		<stop  offset="0.9" style="stop-color:#714119"/>
		<stop  offset="0.95" style="stop-color:#653417"/>
		<stop  offset="1" style="stop-color:#603116"/>
	</linearGradient>
	<path style="fill:url(#SVGID_00000170980622194075510020000018416484018990966664_);" d="M749,518.2L503,162.8v445.4h-5V162.8
		L251.9,518.2l-1.4,2l1.4,2l134.2,187.9l36.3,127.1h156l36.3-127.1L749,522.2l1.4-2L749,518.2z M507,175.6l237.2,342.6H641.7
		c-9.6-50.3-19.1-100.7-28.7-151c2.3,50.7,4.6,101.4,7,152.2l-97.7,88.8H507L507,175.6L507,175.6z M638,520.1l-53.8,188.2L525,791.2
		V611.1l99-90l-7-119.5L638,520.1L638,520.1z M503,612.2h18v184.6l-20.5,28.7L480,796.8V612.2H503z M476,791.2l-59.2-82.8
		l-53.8-188.2L384,401.5L377,521l99,90V791.2z M494,175.6v432.6h-15.2L381,519.4c2.3-50.7,4.6-101.4,7-152.2
		c-9.6,50.3-19.1,100.7-28.7,151H256.8L494,175.6L494,175.6z M611.2,708.3l-35.7,124.9h-150l-35.6-124.5
		c-44.3-62.2-88.7-124.3-133-186.5h102.6l53.6,187.5c21,29.4,42,58.9,62.9,88.3l4,5.6l18,25.2l2.5,3.5l2.5-3.5l18-25.2l4-5.6
		l62.8-88l53.7-187.9h102.6L611.2,708.3L611.2,708.3z"/>
</g>
</svg>
